<svg width="23" height="29" viewBox="0 0 23 29" fill="none" xmlns="http://www.w3.org/2000/svg">
<rect x="5.45215" y="6.07617" width="10.9163" height="10.8652" transform="rotate(0.073644 5.45215 6.07617)" fill="#D9D9D9"/>
<path d="M11.5418 27.8239C11.2277 28.078 10.7719 28.0774 10.4584 27.8225C3.52111 22.1812 0.0147102 16.4771 0.0221281 10.7059C0.0297278 4.79318 4.96075 0.00633008 11.0359 0.0141386C17.111 0.0219472 22.0297 4.82146 22.0221 10.7342C22.0147 16.5054 18.4936 22.2004 11.5418 27.8239ZM11.023 10.0052L8.90898 8.97302L8.91097 7.42318C8.91155 6.96836 8.53319 6.59916 8.06588 6.59856C7.59856 6.59796 7.21925 6.96618 7.21866 7.421L7.21602 9.47983C7.21562 9.79175 7.39632 10.0772 7.68281 10.217L14.4478 13.5198C14.8655 13.7238 15.374 13.5595 15.5835 13.153C15.793 12.7465 15.6242 12.2516 15.2065 12.0476L12.7143 10.8309L12.7187 7.42807C12.7201 6.33003 11.0278 6.32786 11.0264 7.4259L11.023 10.0052ZM7.20702 16.4798L14.8224 16.4896C15.2897 16.4902 15.669 16.122 15.6696 15.6672C15.6702 15.2123 15.2918 14.8432 14.8245 14.8426L7.20914 14.8328C6.74182 14.8322 6.36251 15.2004 6.36193 15.6552C6.36134 16.11 6.7397 16.4792 7.20702 16.4798Z" fill="#E43A3A"/>
</svg>