<svg width="23" height="29" viewBox="0 0 23 29" fill="none" xmlns="http://www.w3.org/2000/svg">
<rect x="6.01294" y="7" width="11" height="10" transform="rotate(0.0736442 6.01294 7)" fill="#D9D9D9"/>
<path d="M11.5418 27.8239C11.2277 28.078 10.7719 28.0774 10.4584 27.8225C3.52111 22.1812 0.0147101 16.4771 0.022128 10.7059C0.0297278 4.79318 4.96075 0.0063301 11.0359 0.0141387C17.111 0.0219472 22.0297 4.82146 22.0221 10.7342C22.0147 16.5054 18.4936 22.2004 11.5418 27.8239ZM9.81812 13.4474L15.7465 9.33738C16.1271 9.07351 16.2158 8.5593 15.9447 8.18885C15.6735 7.81839 15.1452 7.732 14.7646 7.99587L12.2153 9.76321L9.28821 8.33413C8.87049 8.13018 8.36202 8.29444 8.15251 8.70098C7.94299 9.10751 8.11178 9.60241 8.5295 9.80635L10.6558 10.8444L9.21304 11.8446L7.52808 11.1862C7.0944 11.0167 6.6017 11.2215 6.4276 11.6435C6.2535 12.0656 6.46393 12.5452 6.89761 12.7146L9.01193 13.5409C9.27948 13.6454 9.58331 13.6102 9.81812 13.4474ZM7.20702 16.4798L14.8224 16.4896C15.2897 16.4902 15.669 16.122 15.6696 15.6672C15.6702 15.2123 15.2918 14.8432 14.8245 14.8425L7.20914 14.8328C6.74182 14.8322 6.36251 15.2004 6.36193 15.6552C6.36134 16.11 6.7397 16.4792 7.20702 16.4798Z" fill="#E43A3A"/>
</svg>